# xmcd
#
# Track frame offsets: 
#        150
#        15957
#        27515
#        39102
#        60425
#        75202
#        88390
#        104447
#        115775
#        132790
#        136570
#
# Disc length: 2028 seconds
#
# Revision: 7
# Processed by: cddbd v1.5.2PL0 Copyright (c) Steve Scherf et al.
# Submitted via: ExactAudioCopyFreeDBPlugin 1.0
#
DISCID=7507ea0b
DTITLE=Garth Brooks - Beyond the Season
DYEAR=1992
DGENRE=Country
TTITLE0=Go Tell It on the Mountain
TTITLE1=God Rest Ye Merry Gentlemen
TTITLE2=The Old Man's Back in Town
TTITLE3=The Gift
TTITLE4=Unto You This Night
TTITLE5=White Christmas
TTITLE6=The Friendly Beasts
TTITLE7=Santa Looked a Lot Like Daddy
TTITLE8=Silent Night
TTITLE9=Mary's Dream
TTITLE10=What Child Is This
EXTD=
EXTT0=
EXTT1=
EXTT2=
EXTT3=
EXTT4=
EXTT5=
EXTT6=
EXTT7=
EXTT8=
EXTT9=
EXTT10=
PLAYORDER=
